FFmpeg version SVN-r25716, Copyright (c) 2000-2010 the FFmpeg developers  built on Nov 10 2010 12:23:18 with gcc 4.1.2 20080704 (Red Hat 4.1.2-48)  configuration: --enable-libmp3lame --enable-shared --disable-mmx --arch=x86_64  libavutil     50.33. 0 / 50.33. 0  libavcore      0.12. 1 /  0.12. 1  libavcodec    52.94. 4 / 52.94. 4  libavformat   52.84. 0 / 52.84. 0  libavdevice   52. 2. 2 / 52. 2. 2  libavfilter    1.59. 0 /  1.59. 0  libswscale     0.12. 0 /  0.12. 0[mov,mp4,m4a,3gp,3g2,mj2 @ 0x1dfba4c0] multiple edit list entries, a/v desync might occur, patch welcomeSeems stream 0 codec frame rate differs from container frame rate: 600.00 (600/1) -> 15.00 (15/1)Input #0, mov,mp4,m4a,3gp,3g2,mj2, from '/RAID10/data/converted_video_files/11836.mov':  Duration: 00:00:06.66, start: 0.001667, bitrate: 10619 kb/s    Stream #0.0(eng): Video: svq3, yuvj420p, 462x446, 10615 kb/s, 15 fps, 15 tbr, 600 tbn, 600 tbc[buffer @ 0x1dfbfee0] w:462 h:446 pixfmt:yuvj420p[ffsink @ 0x1dfc0150] auto-inserting filter 'auto-inserted scaler 0' between the filter 'src' and the filter 'out'[scale @ 0x1dfc0470] w:462 h:446 fmt:yuvj420p -> w:462 h:446 fmt:yuv420p flags:0x4Output #0, flv, to '/RAID10/data/converted_video_files/11836.flv':  Metadata:    encoder         : Lavf52.84.0    Stream #0.0(eng): Video: flv, yuv420p, 462x446, q=2-31, 600 kb/s, 1k tbn, 24 tbcStream mapping:  Stream #0.0 -> #0.0Press [q] to stop encodingframe=   32 fps=  0 q=15.3 size=     294kB time=2.12 bitrate=1132.3kbits/s    frame=   71 fps= 68 q=14.2 size=     436kB time=4.71 bitrate= 757.9kbits/s    frame=   99 fps= 70 q=13.4 Lsize=     553kB time=6.58 bitrate= 688.0kbits/s dup=0 drop=1    video:551kB audio:0kB global headers:0kB muxing overhead 0.317857%